<?xml version="1.0" encoding="UTF-8"?> <svg xmlns="http://www.w3.org/2000/svg" width="231" height="23" viewBox="0 0 231 23" fill="none"> <path d="M132.777 20.4123C132.363 20.8267 131.919 21.1115 131.447 21.2669C130.974 21.4223 130.51 21.4465 130.053 21.3397C129.594 21.2297 129.176 20.9869 128.8 20.6114C128.425 20.2359 128.184 19.82 128.077 19.3636C127.967 18.9039 127.99 18.4378 128.145 17.9652C128.3 17.4926 128.585 17.0492 129 16.6348C129.414 16.2205 129.857 15.9357 130.33 15.7803C130.803 15.6249 131.269 15.6023 131.728 15.7123C132.185 15.8191 132.601 16.0603 132.976 16.4358C133.352 16.8113 133.594 17.2288 133.704 17.6885C133.811 18.1449 133.787 18.6094 133.632 19.082C133.476 19.5545 133.191 19.998 132.777 20.4123Z" fill="#4C2FFA"></path> <path fill-rule="evenodd" clip-rule="evenodd" d="M18.9518 15.1614C19.2927 14.6769 19.5567 14.155 19.7438 13.5958H12.5796V10.8492H22.9894V20.9842H20.2977L20.1039 17.2172C19.7623 17.7183 19.3691 18.1866 18.9243 18.6221C18.0454 19.4827 16.9742 20.1602 15.7108 20.6546C14.4656 21.1307 13.0374 21.3687 11.426 21.3687C9.79634 21.3687 8.28569 21.1215 6.89406 20.6271C5.50243 20.1327 4.28476 19.4278 3.24103 18.5122C2.21562 17.5784 1.4191 16.4523 0.851458 15.1339C0.283819 13.8155 0 12.3323 0 10.6844C0 9.03639 0.283819 7.55321 0.851458 6.23483C1.43741 4.91645 2.25224 3.79949 3.29597 2.88395C4.33969 1.9501 5.56652 1.23598 6.97646 0.741588C8.3864 0.247196 9.93367 0 11.6183 0C13.724 0 15.5643 0.347906 17.139 1.04372C18.7321 1.72122 20.0138 2.65507 20.9843 3.84527C21.9548 5.03547 22.5499 6.39963 22.7696 7.93774H19.0891C18.8877 6.96727 18.4483 6.12497 17.7707 5.41085C17.1116 4.69672 16.2601 4.1474 15.2164 3.76287C14.1727 3.37835 12.9641 3.18608 11.5908 3.18608C9.97945 3.18608 8.57867 3.48821 7.38846 4.09247C6.21656 4.67841 5.30101 5.52987 4.64182 6.64683C4.00094 7.76379 3.68049 9.10963 3.68049 10.6844C3.68049 12.2591 4.01009 13.6141 4.66928 14.7494C5.34679 15.8846 6.29896 16.7544 7.52579 17.3587C8.75262 17.9629 10.1992 18.265 11.8655 18.265C13.4768 18.265 14.8868 17.9904 16.0953 17.441C17.3038 16.8917 18.256 16.1318 18.9518 15.1614ZM30.6879 20.9842V12.7443H34.8316L41.7568 20.9842H46.0965L39.0786 12.7181C40.2029 12.6409 41.2055 12.3933 42.0864 11.9753C43.1851 11.4443 44.0365 10.721 44.6408 9.80544C45.2634 8.87159 45.5747 7.80041 45.5747 6.59189C45.5747 5.34676 45.2634 4.26642 44.6408 3.35088C44.0365 2.41703 43.1851 1.69375 42.0864 1.18105C41.0061 0.650034 39.7426 0.384527 38.2961 0.384527H27.0623V20.9842H30.6879ZM37.9665 9.66811H30.6879V3.51568H37.9665C39.175 3.51568 40.1272 3.79034 40.823 4.33966C41.5371 4.87068 41.8942 5.62142 41.8942 6.59189C41.8942 7.54406 41.5371 8.2948 40.823 8.84412C40.1272 9.39345 39.175 9.66811 37.9665 9.66811ZM52.807 16.26L50.6002 20.9842H46.7274L56.6153 0.384527H61.1472L71.0351 20.9842H67.1624L64.9555 16.26H52.807ZM63.5569 13.2662L58.8813 3.25714L54.2056 13.2662H63.5569ZM101.26 20.9842H97.7988V3.82261L89.3391 20.9842H85.4664L77.0067 3.84685V20.9842H73.546V0.384527H79.0942L87.4151 17.5464L95.7113 0.384527H101.26V20.9842ZM121.033 10.1872C121.658 10.3101 122.216 10.485 122.704 10.7118C123.748 11.1879 124.508 11.8288 124.984 12.6345C125.478 13.4401 125.725 14.3465 125.725 15.3536C125.725 16.4523 125.46 17.4227 124.929 18.265C124.416 19.1073 123.656 19.7757 122.649 20.2701C121.642 20.7462 120.388 20.9842 118.886 20.9842H105.153L106.774 10.4097L105.153 0.384527H118.392C120.296 0.384527 121.761 0.833142 122.787 1.73037C123.83 2.60929 124.352 3.82696 124.352 5.38338C124.352 6.20737 124.151 7.01304 123.748 7.80041C123.363 8.56946 122.732 9.22865 121.853 9.77798C121.604 9.93114 121.331 10.0675 121.033 10.1872ZM109.095 18.0728H118.474C119.61 18.0728 120.488 17.8164 121.111 17.3037C121.752 16.7727 122.072 16.022 122.072 15.0515C122.072 14.0261 121.697 13.2296 120.946 12.6619C120.214 12.0943 119.124 11.8105 117.678 11.8105H110.049L109.095 18.0728ZM117.321 9.00892H110.035L109.112 3.29595H117.595C118.602 3.29595 119.372 3.54314 119.903 4.03753C120.434 4.51362 120.699 5.12703 120.699 5.87777C120.699 6.88487 120.379 7.66308 119.738 8.2124C119.097 8.74341 118.291 9.00892 117.321 9.00892ZM205.593 12.8268C205.41 14.5114 204.815 16.0037 203.808 17.3038C202.819 18.5855 201.519 19.5835 199.908 20.2976C198.296 21.0117 196.456 21.3688 194.387 21.3688C192.08 21.3688 190.056 20.9202 188.317 20.0229C186.577 19.1257 185.222 17.8806 184.252 16.2875C183.281 14.6762 182.796 12.8085 182.796 10.6844C182.796 8.56037 183.281 6.70182 184.252 5.10878C185.222 3.49743 186.577 2.24314 188.317 1.34591C190.056 0.448681 192.08 6.58035e-05 194.387 6.58035e-05C196.456 6.58035e-05 198.296 0.357127 199.908 1.07125C201.519 1.78537 202.819 2.78331 203.808 4.06507C204.815 5.34682 205.41 6.83916 205.593 8.54206H201.94C201.739 7.44341 201.299 6.50041 200.622 5.71304C199.963 4.92567 199.102 4.32142 198.04 3.90027C196.978 3.46081 195.751 3.24108 194.36 3.24108C192.748 3.24108 191.347 3.54321 190.157 4.14747C188.985 4.75172 188.079 5.61233 187.438 6.72929C186.797 7.84625 186.477 9.16463 186.477 10.6844C186.477 12.2042 186.797 13.5226 187.438 14.6396C188.079 15.7565 188.985 16.6171 190.157 17.2214C191.347 17.8256 192.748 18.1278 194.36 18.1278C195.751 18.1278 196.978 17.9172 198.04 17.496C199.102 17.0749 199.963 16.4706 200.622 15.6833C201.299 14.8776 201.739 13.9254 201.94 12.8268H205.593ZM160.741 3.57068H152.227V0.384593H172.881V3.57068H164.367V20.9843H160.741V3.57068ZM179.258 0.384593H175.633V20.9843H179.258V0.384593ZM211.946 16.2601L209.739 20.9843H205.866L215.754 0.384593H220.286L230.174 20.9843H226.301L224.094 16.2601H211.946ZM222.696 13.2663L218.02 3.25722L213.344 13.2663H222.696ZM134.437 20.3816C136.028 21.0397 137.827 21.3688 139.834 21.3688C142.178 21.3688 144.238 20.9202 146.014 20.0229C147.79 19.1257 149.173 17.8806 150.162 16.2875C151.15 14.6762 151.645 12.8085 151.645 10.6844C151.645 8.56037 151.15 6.70182 150.162 5.10878C149.173 3.49743 147.79 2.24314 146.014 1.34591C144.238 0.448681 142.178 6.58035e-05 139.834 6.58035e-05C137.49 6.58035e-05 135.43 0.448681 133.654 1.34591C131.878 2.24314 130.496 3.49743 129.507 5.10878C128.518 6.70182 128.024 8.56037 128.024 10.6844C128.024 12.2947 128.308 13.7576 128.876 15.0732C129.203 14.8549 129.553 14.6799 129.928 14.5567C130.614 14.3312 131.322 14.2912 132.025 14.459C132.273 14.5172 132.509 14.5999 132.733 14.7046C132.72 14.683 132.706 14.6613 132.693 14.6396C132.034 13.5226 131.704 12.2042 131.704 10.6844C131.704 9.16463 132.034 7.84625 132.693 6.72929C133.37 5.61233 134.314 4.75172 135.522 4.14747C136.749 3.54321 138.186 3.24108 139.834 3.24108C141.501 3.24108 142.938 3.54321 144.146 4.14747C145.355 4.75172 146.289 5.61233 146.948 6.72929C147.626 7.84625 147.964 9.16463 147.964 10.6844C147.964 12.2042 147.626 13.5226 146.948 14.6396C146.289 15.7565 145.355 16.6171 144.146 17.2214C142.938 17.8256 141.501 18.1278 139.834 18.1278C138.186 18.1278 136.749 17.8256 135.522 17.2214C135.253 17.0867 134.996 16.9392 134.753 16.779C134.838 16.9737 134.906 17.1768 134.957 17.3882L134.957 17.3914L134.958 17.3946C135.122 18.0955 135.079 18.8007 134.855 19.4836C134.751 19.8002 134.61 20.0994 134.437 20.3816Z" fill="#113148"></path> </svg> 